<svg width="24" height="20" viewBox="0 0 24 20" fill="none" xmlns="http://www.w3.org/2000/svg">
<g filter="url(#filter0_dd_122_7835)">
<path fill-rule="evenodd" clip-rule="evenodd" d="M18.5668 1.21216H5.43301C3.98866 1.21216 3.47314 1.38928 2.94732 1.68044C2.37637 1.99658 1.92829 2.4605 1.62294 3.05163C1.34173 3.59604 1.17065 4.12979 1.17065 5.6252V14.3749C1.17065 15.8703 1.34173 16.404 1.62294 16.9484C1.92829 17.5396 2.37637 18.0035 2.94732 18.3196C3.47314 18.6108 3.98866 18.7879 5.43301 18.7879H18.5668C20.0112 18.7879 20.5267 18.6108 21.0525 18.3196C21.6235 18.0035 22.0716 17.5396 22.3769 16.9484C22.6581 16.404 22.8292 15.8703 22.8292 14.3749V5.6252C22.8292 4.12979 22.6581 3.59604 22.3769 3.05163C22.0716 2.4605 21.6235 1.99658 21.0525 1.68044C20.5267 1.38928 20.0112 1.21216 18.5668 1.21216Z" fill="#EEEEEE" stroke="white"/>
<path fill-rule="evenodd" clip-rule="evenodd" d="M5.43305 1.81812H18.5669C19.8454 1.81812 20.3091 1.95595 20.7765 2.21477C21.2439 2.47359 21.6108 2.85339 21.8608 3.33734C21.9111 3.43484 21.9567 3.53218 21.9975 3.6363H2.00244C2.04319 3.53218 2.0888 3.43484 2.13917 3.33734C2.38915 2.85339 2.75599 2.47359 3.22341 2.21477C3.69084 1.95595 4.15448 1.81812 5.43305 1.81812Z" fill="#FF4B4B"/>
<path fill-rule="evenodd" clip-rule="evenodd" d="M22.2431 5.45459C22.2437 5.50986 22.2439 5.56671 22.2439 5.62521V7.27277H1.7561V5.62521C1.7561 5.56671 1.75636 5.50986 1.75688 5.45459H22.2431Z" fill="#FF4B4B"/>
<path fill-rule="evenodd" clip-rule="evenodd" d="M22.2439 9.09106V10.9092H1.7561L1.7561 9.09106H22.2439Z" fill="#FF4B4B"/>
<path fill-rule="evenodd" clip-rule="evenodd" d="M22.2439 14.3749C22.2439 14.4334 22.2437 14.4902 22.2431 14.5455H1.75688C1.75636 14.4902 1.7561 14.4334 1.7561 14.3749V12.7273H22.2439V14.3749Z" fill="#FF4B4B"/>
<path fill-rule="evenodd" clip-rule="evenodd" d="M21.9975 16.3638C21.9567 16.4679 21.9111 16.5652 21.8608 16.6627C21.6108 17.1467 21.2439 17.5265 20.7765 17.7853C20.3091 18.0441 19.8454 18.1819 18.5669 18.1819H5.43305C4.15448 18.1819 3.69084 18.0441 3.22341 17.7853C2.75599 17.5265 2.38915 17.1467 2.13917 16.6627C2.0888 16.5652 2.04319 16.4679 2.00244 16.3638H21.9975Z" fill="#FF4B4B"/>
<path fill-rule="evenodd" clip-rule="evenodd" d="M5.43309 1.81812H12V9.09084H1.7561V5.6251C1.7561 4.30133 1.88923 3.8213 2.13921 3.33734C2.38919 2.85339 2.75603 2.47359 3.22346 2.21477C3.69088 1.95595 4.15452 1.81812 5.43309 1.81812Z" fill="#1CB0F6"/>
<path d="M9.89447 4.72801L9.52114 4.93122C9.40391 4.99503 9.25891 4.94836 9.19728 4.82699C9.17274 4.77866 9.16427 4.7233 9.17319 4.66948L9.24449 4.23907C9.25127 4.19811 9.23816 4.15632 9.20942 4.12731L8.90738 3.82249C8.81254 3.72677 8.8106 3.56958 8.90305 3.47139C8.93986 3.43229 8.98809 3.40684 9.04028 3.39899L9.45769 3.33619C9.49741 3.33022 9.53175 3.30439 9.54951 3.26712L9.73618 2.87552C9.79479 2.75255 9.93859 2.70207 10.0574 2.76275C10.1046 2.78692 10.1429 2.82655 10.1663 2.87552L10.3529 3.26712C10.3707 3.30439 10.405 3.33022 10.4448 3.33619L10.8622 3.39899C10.9932 3.41871 11.084 3.5447 11.065 3.6804C11.0574 3.73443 11.0328 3.78437 10.9951 3.82249L10.693 4.12731C10.6643 4.15632 10.6512 4.19811 10.658 4.23907L10.7293 4.66948C10.7516 4.80463 10.664 4.93299 10.5334 4.95617C10.4815 4.9654 10.428 4.95663 10.3813 4.93122L10.008 4.72801C9.97244 4.70867 9.93 4.70867 9.89447 4.72801Z" fill="white"/>
<path d="M9.89447 7.75828L9.52114 7.96149C9.40391 8.0253 9.25891 7.97864 9.19728 7.85727C9.17274 7.80893 9.16427 7.75357 9.17319 7.69976L9.24449 7.26934C9.25127 7.22838 9.23816 7.18659 9.20942 7.15758L8.90738 6.85276C8.81254 6.75705 8.8106 6.59986 8.90305 6.50166C8.93986 6.46256 8.98809 6.43712 9.04028 6.42926L9.45769 6.36647C9.49741 6.36049 9.53175 6.33466 9.54951 6.2974L9.73618 5.90579C9.79479 5.78283 9.93859 5.73234 10.0574 5.79303C10.1046 5.81719 10.1429 5.85683 10.1663 5.90579L10.3529 6.2974C10.3707 6.33466 10.405 6.36049 10.4448 6.36647L10.8622 6.42926C10.9932 6.44898 11.084 6.57497 11.065 6.71067C11.0574 6.76471 11.0328 6.81465 10.9951 6.85276L10.693 7.15758C10.6643 7.18659 10.6512 7.22838 10.658 7.26934L10.7293 7.69976C10.7516 7.83491 10.664 7.96326 10.5334 7.98644C10.4815 7.99567 10.428 7.9869 10.3813 7.96149L10.008 7.75828C9.97244 7.73894 9.93 7.73894 9.89447 7.75828Z" fill="white"/>
<path d="M6.96747 4.72801L6.59413 4.93122C6.47691 4.99503 6.33191 4.94836 6.27028 4.82699C6.24574 4.77866 6.23727 4.7233 6.24619 4.66948L6.31749 4.23907C6.32427 4.19811 6.31116 4.15632 6.28241 4.12731L5.98038 3.82249C5.88554 3.72677 5.8836 3.56958 5.97604 3.47139C6.01286 3.43229 6.06109 3.40684 6.11328 3.39899L6.53069 3.33619C6.57041 3.33022 6.60474 3.30439 6.62251 3.26712L6.80918 2.87552C6.86779 2.75255 7.01159 2.70207 7.13035 2.76275C7.17764 2.78692 7.21592 2.82655 7.23926 2.87552L7.42593 3.26712C7.4437 3.30439 7.47803 3.33022 7.51775 3.33619L7.93516 3.39899C8.06622 3.41871 8.15703 3.5447 8.13799 3.6804C8.13041 3.73443 8.10583 3.78437 8.06806 3.82249L7.76603 4.12731C7.73728 4.15632 7.72417 4.19811 7.73095 4.23907L7.80225 4.66948C7.82464 4.80463 7.73697 4.93299 7.60644 4.95617C7.55446 4.9654 7.50099 4.95663 7.45431 4.93122L7.08097 4.72801C7.04544 4.70867 7.003 4.70867 6.96747 4.72801Z" fill="white"/>
<path d="M6.96747 7.75828L6.59413 7.96149C6.47691 8.0253 6.33191 7.97864 6.27028 7.85727C6.24574 7.80893 6.23727 7.75357 6.24619 7.69976L6.31749 7.26934C6.32427 7.22838 6.31116 7.18659 6.28241 7.15758L5.98038 6.85276C5.88554 6.75705 5.8836 6.59986 5.97604 6.50166C6.01286 6.46256 6.06109 6.43712 6.11328 6.42926L6.53069 6.36647C6.57041 6.36049 6.60474 6.33466 6.62251 6.2974L6.80918 5.90579C6.86779 5.78283 7.01159 5.73234 7.13035 5.79303C7.17764 5.81719 7.21592 5.85683 7.23926 5.90579L7.42593 6.2974C7.4437 6.33466 7.47803 6.36049 7.51775 6.36647L7.93516 6.42926C8.06622 6.44898 8.15703 6.57497 8.13799 6.71067C8.13041 6.76471 8.10583 6.81465 8.06806 6.85276L7.76603 7.15758C7.73728 7.18659 7.72417 7.22838 7.73095 7.26934L7.80225 7.69976C7.82464 7.83491 7.73697 7.96326 7.60644 7.98644C7.55446 7.99567 7.50099 7.9869 7.45431 7.96149L7.08097 7.75828C7.04544 7.73894 7.003 7.73894 6.96747 7.75828Z" fill="white"/>
<path d="M4.04071 4.72801L3.66738 4.93122C3.55015 4.99503 3.40515 4.94836 3.34352 4.82699C3.31898 4.77866 3.31051 4.7233 3.31943 4.66948L3.39073 4.23907C3.39751 4.19811 3.3844 4.15632 3.35566 4.12731L3.05362 3.82249C2.95878 3.72677 2.95684 3.56958 3.04929 3.47139C3.0861 3.43229 3.13433 3.40684 3.18652 3.39899L3.60393 3.33619C3.64365 3.33022 3.67799 3.30439 3.69575 3.26712L3.88242 2.87552C3.94103 2.75255 4.08483 2.70207 4.20359 2.76275C4.25089 2.78692 4.28917 2.82655 4.31251 2.87552L4.49917 3.26712C4.51694 3.30439 4.55128 3.33022 4.591 3.33619L5.0084 3.39899C5.13947 3.41871 5.23028 3.5447 5.21123 3.6804C5.20365 3.73443 5.17907 3.78437 5.1413 3.82249L4.83927 4.12731C4.81053 4.15632 4.79741 4.19811 4.8042 4.23907L4.8755 4.66948C4.89789 4.80463 4.81021 4.93299 4.67968 4.95617C4.6277 4.9654 4.57423 4.95663 4.52755 4.93122L4.15421 4.72801C4.11868 4.70867 4.07624 4.70867 4.04071 4.72801Z" fill="white"/>
<path d="M4.04071 7.75828L3.66738 7.96149C3.55015 8.0253 3.40515 7.97864 3.34352 7.85727C3.31898 7.80893 3.31051 7.75357 3.31943 7.69976L3.39073 7.26934C3.39751 7.22838 3.3844 7.18659 3.35566 7.15758L3.05362 6.85276C2.95878 6.75705 2.95684 6.59986 3.04929 6.50166C3.0861 6.46256 3.13433 6.43712 3.18652 6.42926L3.60393 6.36647C3.64365 6.36049 3.67799 6.33466 3.69575 6.2974L3.88242 5.90579C3.94103 5.78283 4.08483 5.73234 4.20359 5.79303C4.25089 5.81719 4.28917 5.85683 4.31251 5.90579L4.49917 6.2974C4.51694 6.33466 4.55128 6.36049 4.591 6.36647L5.0084 6.42926C5.13947 6.44898 5.23028 6.57497 5.21123 6.71067C5.20365 6.76471 5.17907 6.81465 5.1413 6.85276L4.83927 7.15758C4.81053 7.18659 4.79741 7.22838 4.8042 7.26934L4.8755 7.69976C4.89789 7.83491 4.81021 7.96326 4.67968 7.98644C4.6277 7.99567 4.57423 7.9869 4.52755 7.96149L4.15421 7.75828C4.11868 7.73894 4.07624 7.73894 4.04071 7.75828Z" fill="white"/>
</g>
<defs>
<filter id="filter0_dd_122_7835" x="-1.32935" y="-0.287842" width="26.6584" height="22.5757" filterUnits="userSpaceOnUse" color-interpolation-filters="sRGB">
<feFlood flood-opacity="0" result="BackgroundImageFix"/>
<feColorMatrix in="SourceAlpha" type="matrix" values="0 0 0 0 0 0 0 0 0 0 0 0 0 0 0 0 0 0 127 0" result="hardAlpha"/>
<feOffset dy="1"/>
<feGaussianBlur stdDeviation="1"/>
<feComposite in2="hardAlpha" operator="out"/>
<feColorMatrix type="matrix" values="0 0 0 0 0 0 0 0 0 0 0 0 0 0 0 0 0 0 0.1 0"/>
<feBlend mode="normal" in2="BackgroundImageFix" result="effect1_dropShadow_122_7835"/>
<feColorMatrix in="SourceAlpha" type="matrix" values="0 0 0 0 0 0 0 0 0 0 0 0 0 0 0 0 0 0 127 0" result="hardAlpha"/>
<feOffset dy="1"/>
<feGaussianBlur stdDeviation="0.5"/>
<feComposite in2="hardAlpha" operator="out"/>
<feColorMatrix type="matrix" values="0 0 0 0 0 0 0 0 0 0 0 0 0 0 0 0 0 0 0.06 0"/>
<feBlend mode="normal" in2="effect1_dropShadow_122_7835" result="effect2_dropShadow_122_7835"/>
<feBlend mode="normal" in="SourceGraphic" in2="effect2_dropShadow_122_7835" result="shape"/>
</filter>
</defs>
</svg>
