<svg width="28" height="24" viewBox="0 0 28 24" fill="none" xmlns="http://www.w3.org/2000/svg">
<g filter="url(#filter0_dd_155_5430)">
<path d="M20.7375 2.21216H7.60366C6.15932 2.21216 5.64379 2.38928 5.11797 2.68044C4.54702 2.99658 4.09894 3.4605 3.7936 4.05163C3.51239 4.59604 3.34131 5.12979 3.34131 6.6252V15.3749C3.34131 16.8703 3.51239 17.404 3.7936 17.9484C4.09894 18.5396 4.54702 19.0035 5.11797 19.3196C5.64379 19.6108 6.15932 19.7879 7.60366 19.7879H20.7375C22.1818 19.7879 22.6974 19.6108 23.2232 19.3196C23.7941 19.0035 24.2422 18.5396 24.5476 17.9484C24.8288 17.404 24.9998 16.8703 24.9998 15.3749V6.6252C24.9998 5.12979 24.8288 4.59604 24.5476 4.05163C24.2422 3.4605 23.7941 2.99658 23.2232 2.68044C22.6974 2.38928 22.1818 2.21216 20.7375 2.21216Z" fill="#EEEEEE" stroke="white"/>
<path d="M24.4146 5.54541H3.92676V8.27268H24.4146V5.54541Z" fill="#1254A9"/>
<path d="M21.6872 2.81836H15.3413V5.54563H24.4145C24.4145 4.0394 23.1934 2.81836 21.6872 2.81836Z" fill="#1254A9"/>
<path d="M24.4146 8.27271H3.92676V11H24.4146V8.27271Z" fill="#1254A9"/>
<path d="M15.3414 2.81812V10.9999H3.92676V6.6251C3.92676 5.30133 4.05988 4.82129 4.30987 4.33734C4.55985 3.85339 4.92669 3.47359 5.39411 3.21477L5.52211 3.14719C5.95257 2.93203 6.44141 2.81812 7.60374 2.81812H15.3414Z" fill="#1254A9"/>
<path d="M8.90237 2.81812V5.52797L9.62862 6.07427L10.3658 5.51976V2.81812H11.2438V4.85927L13.9573 2.81812H15.3414V3.6498L13.2243 5.24236H15.3414V6.15145H12.0157L10.8735 7.01069L11.7454 7.6666H15.3414V8.57569H12.954L15.3414 10.3716V10.9999H13.687L11.2438 9.16211V10.9999H10.3658V8.50162L9.62862 7.9471L8.90237 8.49341V10.9999H8.02432V9.15391L5.57024 10.9999H3.92676V10.3634L6.30328 8.57569H3.92676V7.6666H7.51181L8.38377 7.01069L7.2415 6.15145L3.93343 6.15114C3.94488 5.77656 3.97101 5.48417 4.0112 5.2422L6.03297 5.24236L4.46937 4.06616C4.70679 3.70983 5.01786 3.4231 5.39411 3.21477C5.47947 3.1675 5.56469 3.12428 5.65478 3.08519L8.02432 4.86747V2.81812H8.90237Z" fill="#EEEEEE"/>
<path d="M24.37 16.4546C24.3119 17.0213 24.1974 17.3411 24.0313 17.6626C23.7813 18.1466 23.4145 18.5264 22.947 18.7852C22.4796 19.044 22.016 19.1819 20.7374 19.1819H7.60357C6.325 19.1819 5.86136 19.044 5.39394 18.7852C4.92651 18.5264 4.55967 18.1466 4.30969 17.6626C4.1436 17.3411 4.0291 17.0213 3.97095 16.4546H24.37Z" fill="#1254A9"/>
<path d="M24.4146 15.3749C24.4146 15.8191 24.3996 16.1683 24.3702 16.4546H3.97112C3.94175 16.1683 3.92676 15.8191 3.92676 15.3749V13.7273H24.4146V15.3749Z" fill="#1254A9"/>
<path d="M24.4146 12.6478C24.4146 13.0921 24.3996 13.4413 24.3702 13.7275H3.97112C3.94175 13.4413 3.92676 13.0921 3.92676 12.6478V11.0002H24.4146V12.6478Z" fill="#1254A9"/>
<path d="M10.3658 6.15145H15.3414V7.6666H10.3658V10.9999H8.90237V7.6666H3.92676V6.15145H8.90237V2.81812H10.3658V6.15145Z" fill="#FF4B4B"/>
<circle cx="9.6341" cy="14.9334" r="1.52106" fill="white"/>
<circle cx="19.878" cy="7.06671" r="0.964657" fill="white"/>
<circle cx="17.3382" cy="11.0001" r="0.964657" fill="white"/>
<circle cx="22.5154" cy="9.63629" r="0.964657" fill="white"/>
<circle cx="19.878" cy="15.49" r="0.964657" fill="white"/>
<circle cx="21.5113" cy="12.3638" r="0.668771" fill="white"/>
</g>
<defs>
<filter id="filter0_dd_155_5430" x="0.841309" y="0.712158" width="26.6584" height="22.5757" filterUnits="userSpaceOnUse" color-interpolation-filters="sRGB">
<feFlood flood-opacity="0" result="BackgroundImageFix"/>
<feColorMatrix in="SourceAlpha" type="matrix" values="0 0 0 0 0 0 0 0 0 0 0 0 0 0 0 0 0 0 127 0" result="hardAlpha"/>
<feOffset dy="1"/>
<feGaussianBlur stdDeviation="1"/>
<feComposite in2="hardAlpha" operator="out"/>
<feColorMatrix type="matrix" values="0 0 0 0 0 0 0 0 0 0 0 0 0 0 0 0 0 0 0.1 0"/>
<feBlend mode="normal" in2="BackgroundImageFix" result="effect1_dropShadow_155_5430"/>
<feColorMatrix in="SourceAlpha" type="matrix" values="0 0 0 0 0 0 0 0 0 0 0 0 0 0 0 0 0 0 127 0" result="hardAlpha"/>
<feOffset dy="1"/>
<feGaussianBlur stdDeviation="0.5"/>
<feComposite in2="hardAlpha" operator="out"/>
<feColorMatrix type="matrix" values="0 0 0 0 0 0 0 0 0 0 0 0 0 0 0 0 0 0 0.06 0"/>
<feBlend mode="normal" in2="effect1_dropShadow_155_5430" result="effect2_dropShadow_155_5430"/>
<feBlend mode="normal" in="SourceGraphic" in2="effect2_dropShadow_155_5430" result="shape"/>
</filter>
</defs>
</svg>
