<svg width="24" height="20" viewBox="0 0 24 20" fill="none" xmlns="http://www.w3.org/2000/svg">
<g clip-path="url(#clip0_122_7928)">
<g filter="url(#filter0_dd_122_7928)">
<path d="M18.5668 1.21216H5.43301C3.98866 1.21216 3.47314 1.38928 2.94732 1.68044C2.37637 1.99658 1.92829 2.4605 1.62294 3.05163C1.34173 3.59604 1.17065 4.12979 1.17065 5.6252V14.3749C1.17065 15.8703 1.34173 16.404 1.62294 16.9484C1.92829 17.5396 2.37637 18.0035 2.94732 18.3196C3.47314 18.6108 3.98866 18.7879 5.43301 18.7879H18.5668C20.0112 18.7879 20.5267 18.6108 21.0525 18.3196C21.6235 18.0035 22.0716 17.5396 22.3769 16.9484C22.6581 16.404 22.8292 15.8703 22.8292 14.3749V5.6252C22.8292 4.12979 22.6581 3.59604 22.3769 3.05163C22.0716 2.4605 21.6235 1.99658 21.0525 1.68044C20.5267 1.38928 20.0112 1.21216 18.5668 1.21216Z" fill="#78C800" stroke="white"/>
<path fill-rule="evenodd" clip-rule="evenodd" d="M3.54488 9.81167L11.6552 3.69162C11.8606 3.53657 12.1393 3.53657 12.3447 3.69162L20.455 9.81167C20.7163 10.0088 20.7737 10.3879 20.5833 10.6584C20.5471 10.7098 20.5033 10.755 20.4536 10.7923L12.3433 16.8739C12.1384 17.0275 11.8614 17.0275 11.6566 16.8739L3.5463 10.7923C3.28447 10.596 3.22594 10.217 3.41558 9.94595C3.45161 9.89444 3.49524 9.84913 3.54488 9.81167Z" fill="#FFC800"/>
<path d="M12 13.9395C13.9397 13.9395 15.5122 12.3114 15.5122 10.3031C15.5122 8.2948 13.9397 6.66675 12 6.66675C10.0603 6.66675 8.48779 8.2948 8.48779 10.3031C8.48779 12.3114 10.0603 13.9395 12 13.9395Z" fill="#1CB0F6"/>
<path fill-rule="evenodd" clip-rule="evenodd" d="M8.49512 10.0635C8.52447 9.59607 8.63911 9.15274 8.8231 8.75L15.5081 10.4757C15.487 10.9442 15.3802 11.3895 15.2036 11.7952L8.49512 10.0635Z" fill="white"/>
</g>
</g>
<defs>
<filter id="filter0_dd_122_7928" x="-1.32935" y="-0.287842" width="26.6584" height="22.5757" filterUnits="userSpaceOnUse" color-interpolation-filters="sRGB">
<feFlood flood-opacity="0" result="BackgroundImageFix"/>
<feColorMatrix in="SourceAlpha" type="matrix" values="0 0 0 0 0 0 0 0 0 0 0 0 0 0 0 0 0 0 127 0" result="hardAlpha"/>
<feOffset dy="1"/>
<feGaussianBlur stdDeviation="1"/>
<feComposite in2="hardAlpha" operator="out"/>
<feColorMatrix type="matrix" values="0 0 0 0 0 0 0 0 0 0 0 0 0 0 0 0 0 0 0.1 0"/>
<feBlend mode="normal" in2="BackgroundImageFix" result="effect1_dropShadow_122_7928"/>
<feColorMatrix in="SourceAlpha" type="matrix" values="0 0 0 0 0 0 0 0 0 0 0 0 0 0 0 0 0 0 127 0" result="hardAlpha"/>
<feOffset dy="1"/>
<feGaussianBlur stdDeviation="0.5"/>
<feComposite in2="hardAlpha" operator="out"/>
<feColorMatrix type="matrix" values="0 0 0 0 0 0 0 0 0 0 0 0 0 0 0 0 0 0 0.06 0"/>
<feBlend mode="normal" in2="effect1_dropShadow_122_7928" result="effect2_dropShadow_122_7928"/>
<feBlend mode="normal" in="SourceGraphic" in2="effect2_dropShadow_122_7928" result="shape"/>
</filter>
<clipPath id="clip0_122_7928">
<rect width="24" height="20" fill="white"/>
</clipPath>
</defs>
</svg>
