<svg width="28" height="24" viewBox="0 0 28 24" fill="none" xmlns="http://www.w3.org/2000/svg">
<g filter="url(#filter0_dd_155_5405)">
<path d="M20.5668 2.21216H7.43301C5.98866 2.21216 5.47314 2.38928 4.94732 2.68044C4.37637 2.99658 3.92829 3.4605 3.62294 4.05163C3.34173 4.59604 3.17065 5.12979 3.17065 6.6252V15.3749C3.17065 16.8703 3.34173 17.404 3.62294 17.9484C3.92829 18.5396 4.37637 19.0035 4.94732 19.3196C5.47314 19.6108 5.98866 19.7879 7.43301 19.7879H20.5668C22.0112 19.7879 22.5267 19.6108 23.0525 19.3196C23.6235 19.0035 24.0716 18.5396 24.3769 17.9484C24.6581 17.404 24.8292 16.8703 24.8292 15.3749V6.6252C24.8292 5.12979 24.6581 4.59604 24.3769 4.05163C24.0716 3.4605 23.6235 2.99658 23.0525 2.68044C22.5267 2.38928 22.0112 2.21216 20.5668 2.21216Z" fill="#EEEEEE" stroke="white"/>
<path d="M10.6707 2.81812V19.1818H7.43309C6.15452 19.1818 5.69088 19.0439 5.22346 18.7851C4.75603 18.5263 4.38919 18.1465 4.13921 17.6625C3.88923 17.1786 3.7561 16.6985 3.7561 15.3748V6.6251C3.7561 5.30133 3.88923 4.82129 4.13921 4.33734C4.38919 3.85339 4.75603 3.47359 5.22346 3.21477C5.69088 2.95595 6.15452 2.81812 7.43309 2.81812H10.6707Z" fill="#FF4B4B"/>
<path d="M17.3291 2.81812H20.5667C21.8453 2.81812 22.309 2.95595 22.7764 3.21477C23.2438 3.47359 23.6106 3.85339 23.8606 4.33734C24.1106 4.82129 24.2437 5.30133 24.2437 6.6251V15.3748C24.2437 16.6985 24.1106 17.1786 23.8606 17.6625C23.6106 18.1465 23.2438 18.5263 22.7764 18.7851C22.309 19.0439 21.8453 19.1818 20.5667 19.1818H17.3291V2.81812Z" fill="#FF4B4B"/>
</g>
<path d="M14.0001 12.8987L12.485 13.2623L12.8284 12.3735L11.3943 11.2019L11.9195 11.0605L11.6165 10.2122L12.3437 10.6767L12.485 10.0303L13.2728 11.2019L13.0102 9.58604L13.6566 9.80812L14.0001 8.73755V12.8987Z" fill="#FF4B4B"/>
<path d="M14.0001 12.8987L15.5151 13.2623L15.1717 12.3735L16.6059 11.2019L16.0807 11.0605L16.3837 10.2122L15.6565 10.6767L15.5151 10.0303L14.7273 11.2019L14.9899 9.58604L14.3435 9.80812L14.0001 8.73755V12.8987Z" fill="#FF4B4B"/>
<defs>
<filter id="filter0_dd_155_5405" x="0.670654" y="0.712158" width="26.6584" height="22.5757" filterUnits="userSpaceOnUse" color-interpolation-filters="sRGB">
<feFlood flood-opacity="0" result="BackgroundImageFix"/>
<feColorMatrix in="SourceAlpha" type="matrix" values="0 0 0 0 0 0 0 0 0 0 0 0 0 0 0 0 0 0 127 0" result="hardAlpha"/>
<feOffset dy="1"/>
<feGaussianBlur stdDeviation="1"/>
<feComposite in2="hardAlpha" operator="out"/>
<feColorMatrix type="matrix" values="0 0 0 0 0 0 0 0 0 0 0 0 0 0 0 0 0 0 0.1 0"/>
<feBlend mode="normal" in2="BackgroundImageFix" result="effect1_dropShadow_155_5405"/>
<feColorMatrix in="SourceAlpha" type="matrix" values="0 0 0 0 0 0 0 0 0 0 0 0 0 0 0 0 0 0 127 0" result="hardAlpha"/>
<feOffset dy="1"/>
<feGaussianBlur stdDeviation="0.5"/>
<feComposite in2="hardAlpha" operator="out"/>
<feColorMatrix type="matrix" values="0 0 0 0 0 0 0 0 0 0 0 0 0 0 0 0 0 0 0.06 0"/>
<feBlend mode="normal" in2="effect1_dropShadow_155_5405" result="effect2_dropShadow_155_5405"/>
<feBlend mode="normal" in="SourceGraphic" in2="effect2_dropShadow_155_5405" result="shape"/>
</filter>
</defs>
</svg>
