<svg width="25" height="20" viewBox="0 0 25 20" fill="none" xmlns="http://www.w3.org/2000/svg">
<g clip-path="url(#clip0_155_5463)">
<g filter="url(#filter0_dd_155_5463)">
<path fill-rule="evenodd" clip-rule="evenodd" d="M18.5729 1.21216H5.43911C3.99477 1.21216 3.47924 1.38928 2.95342 1.68044C2.38247 1.99658 1.93439 2.4605 1.62905 3.05163C1.34783 3.59604 1.17676 4.12979 1.17676 5.6252V14.3749C1.17676 15.8703 1.34783 16.404 1.62905 16.9484C1.93439 17.5396 2.38247 18.0035 2.95342 18.3196C3.47924 18.6108 3.99477 18.7879 5.43911 18.7879H18.5729C20.0173 18.7879 20.5328 18.6108 21.0586 18.3196C21.6296 18.0035 22.0777 17.5396 22.383 16.9484C22.6642 16.404 22.8353 15.8703 22.8353 14.3749V5.6252C22.8353 4.12979 22.6642 3.59604 22.383 3.05163C22.0777 2.4605 21.6296 1.99658 21.0586 1.68044C20.5328 1.38928 20.0173 1.21216 18.5729 1.21216Z" fill="#FF4B4B" stroke="white"/>
<path d="M9.25149 5.14309L8.87628 5.20276C8.75847 5.2215 8.64829 5.1378 8.63019 5.01582C8.62298 4.96725 8.63145 4.91757 8.65426 4.87448L8.83675 4.52984C8.85411 4.49704 8.85478 4.4575 8.83853 4.4241L8.66777 4.07307C8.61416 3.96285 8.65699 3.8285 8.76345 3.77299C8.80584 3.75088 8.85409 3.74386 8.90072 3.75301L9.27369 3.8262C9.30918 3.83317 9.34571 3.8216 9.37138 3.79528L9.64105 3.51867C9.72573 3.43181 9.86238 3.43247 9.94627 3.52014C9.97968 3.55506 10.001 3.60039 10.007 3.64914L10.0551 4.03901C10.0596 4.07612 10.0815 4.10851 10.1137 4.12565L10.4511 4.30571C10.557 4.36225 10.5987 4.49702 10.544 4.60671C10.5223 4.6504 10.4872 4.68544 10.4443 4.70642L10.101 4.87418C10.0684 4.89014 10.0454 4.92173 10.0396 4.95864L9.97843 5.34654C9.95923 5.46834 9.8483 5.55097 9.73066 5.53109C9.68381 5.52318 9.64079 5.4995 9.60826 5.46371L9.34807 5.17753C9.32331 5.15029 9.2872 5.13742 9.25149 5.14309Z" fill="#FFC300"/>
<path d="M11.914 7.17798L11.6538 7.46417C11.5721 7.55403 11.4356 7.55831 11.3488 7.47372C11.3142 7.44004 11.2913 7.3955 11.2837 7.347L11.2225 6.9591C11.2167 6.92218 11.1937 6.8906 11.1611 6.87463L10.8178 6.70687C10.71 6.65419 10.6639 6.52101 10.7147 6.40941C10.735 6.36497 10.7688 6.32868 10.811 6.30617L11.1485 6.1261C11.1806 6.10897 11.2025 6.07657 11.207 6.03947L11.2551 5.6496C11.2701 5.52718 11.3782 5.44059 11.4965 5.4562C11.5435 5.46242 11.5873 5.48453 11.6211 5.51912L11.8907 5.79573C11.9164 5.82206 11.9529 5.83362 11.9884 5.82665L12.3614 5.75346C12.4785 5.73048 12.5914 5.81015 12.6136 5.9314C12.6225 5.97968 12.6157 6.02964 12.5943 6.07353L12.4236 6.42455C12.4073 6.45795 12.408 6.4975 12.4254 6.53029L12.6078 6.87493C12.6651 6.98315 12.6269 7.11897 12.5223 7.17829C12.4807 7.20192 12.4327 7.21068 12.3858 7.20322L12.0106 7.14355C11.9749 7.13787 11.9388 7.15074 11.914 7.17798Z" fill="#FFC300"/>
<path d="M9.25149 12.0157L8.87628 12.0753C8.75847 12.0941 8.64829 12.0104 8.63019 11.8884C8.62298 11.8398 8.63145 11.7901 8.65426 11.747L8.83675 11.4024C8.85411 11.3696 8.85478 11.3301 8.83853 11.2967L8.66777 10.9456C8.61416 10.8354 8.65699 10.7011 8.76345 10.6455C8.80584 10.6234 8.85409 10.6164 8.90072 10.6256L9.27369 10.6988C9.30918 10.7057 9.34571 10.6942 9.37138 10.6678L9.64105 10.3912C9.72573 10.3044 9.86238 10.305 9.94627 10.3927C9.97968 10.4276 10.001 10.473 10.007 10.5217L10.0551 10.9116C10.0596 10.9487 10.0815 10.9811 10.1137 10.9982L10.4511 11.1783C10.557 11.2348 10.5987 11.3696 10.544 11.4793C10.5223 11.523 10.4872 11.558 10.4443 11.579L10.101 11.7467C10.0684 11.7627 10.0454 11.7943 10.0396 11.8312L9.97843 12.2191C9.95923 12.3409 9.8483 12.4235 9.73066 12.4037C9.68381 12.3957 9.64079 12.3721 9.60826 12.3363L9.34807 12.0501C9.32331 12.0229 9.2872 12.01 9.25149 12.0157Z" fill="#FFC300"/>
<path d="M11.6623 10.1134L11.3263 10.2963C11.2208 10.3537 11.0903 10.3117 11.0348 10.2025C11.0127 10.159 11.0051 10.1091 11.0131 10.0607L11.0773 9.67334C11.0834 9.63648 11.0716 9.59886 11.0458 9.57276L10.7739 9.29842C10.6886 9.21227 10.6868 9.0708 10.77 8.98243C10.8031 8.94724 10.8466 8.92434 10.8935 8.91727L11.2692 8.86075C11.3049 8.85537 11.3358 8.83213 11.3518 8.79859L11.5198 8.44615C11.5726 8.33548 11.702 8.29004 11.8089 8.34466C11.8515 8.36641 11.8859 8.40208 11.9069 8.44615L12.0749 8.79859C12.0909 8.83213 12.1218 8.85537 12.1576 8.86075L12.5332 8.91727C12.6512 8.93502 12.7329 9.04841 12.7158 9.17054C12.7089 9.21917 12.6868 9.26412 12.6528 9.29842L12.381 9.57276C12.3551 9.59886 12.3433 9.63648 12.3494 9.67334L12.4136 10.0607C12.4338 10.1823 12.3549 10.2979 12.2374 10.3187C12.1906 10.327 12.1425 10.3191 12.1005 10.2963L11.7645 10.1134C11.7325 10.096 11.6943 10.096 11.6623 10.1134Z" fill="#FFC300"/>
<path d="M6.33167 9.45577L5.585 9.8622C5.35054 9.98981 5.06055 9.89649 4.93729 9.65374C4.88821 9.55708 4.87127 9.44636 4.8891 9.33872L5.0317 8.47789C5.04527 8.39598 5.01904 8.31239 4.96156 8.25437L4.35748 7.64473C4.16781 7.4533 4.16392 7.13892 4.34882 6.94253C4.42244 6.86433 4.51891 6.81344 4.62329 6.79774L5.4581 6.67214C5.53754 6.66019 5.60622 6.60853 5.64174 6.534L6.01508 5.75079C6.13231 5.50486 6.4199 5.40389 6.65743 5.52527C6.75202 5.5736 6.82857 5.65286 6.87526 5.75079L7.24859 6.534C7.28412 6.60853 7.3528 6.66019 7.43224 6.67214L8.26705 6.79774C8.52918 6.83717 8.7108 7.08915 8.67271 7.36055C8.65754 7.46862 8.60839 7.5685 8.53285 7.64473L7.92878 8.25437C7.8713 8.31239 7.84506 8.39598 7.85864 8.47789L8.00124 9.33872C8.04601 9.60902 7.87067 9.86573 7.6096 9.91209C7.50564 9.93055 7.3987 9.91301 7.30534 9.8622L6.55867 9.45577C6.48761 9.41709 6.40273 9.41709 6.33167 9.45577Z" fill="#FFC300"/>
</g>
</g>
<defs>
<filter id="filter0_dd_155_5463" x="-1.32324" y="-0.287842" width="26.6584" height="22.5757" filterUnits="userSpaceOnUse" color-interpolation-filters="sRGB">
<feFlood flood-opacity="0" result="BackgroundImageFix"/>
<feColorMatrix in="SourceAlpha" type="matrix" values="0 0 0 0 0 0 0 0 0 0 0 0 0 0 0 0 0 0 127 0" result="hardAlpha"/>
<feOffset dy="1"/>
<feGaussianBlur stdDeviation="1"/>
<feComposite in2="hardAlpha" operator="out"/>
<feColorMatrix type="matrix" values="0 0 0 0 0 0 0 0 0 0 0 0 0 0 0 0 0 0 0.1 0"/>
<feBlend mode="normal" in2="BackgroundImageFix" result="effect1_dropShadow_155_5463"/>
<feColorMatrix in="SourceAlpha" type="matrix" values="0 0 0 0 0 0 0 0 0 0 0 0 0 0 0 0 0 0 127 0" result="hardAlpha"/>
<feOffset dy="1"/>
<feGaussianBlur stdDeviation="0.5"/>
<feComposite in2="hardAlpha" operator="out"/>
<feColorMatrix type="matrix" values="0 0 0 0 0 0 0 0 0 0 0 0 0 0 0 0 0 0 0.06 0"/>
<feBlend mode="normal" in2="effect1_dropShadow_155_5463" result="effect2_dropShadow_155_5463"/>
<feBlend mode="normal" in="SourceGraphic" in2="effect2_dropShadow_155_5463" result="shape"/>
</filter>
<clipPath id="clip0_155_5463">
<rect width="24" height="20" fill="white" transform="translate(0.00610352)"/>
</clipPath>
</defs>
</svg>
