<svg width="28" height="24" viewBox="0 0 28 24" fill="none" xmlns="http://www.w3.org/2000/svg">
<path d="M20.5378 2.05322H7.40395C5.95961 2.05322 5.44409 2.23035 4.91826 2.5215C4.34732 2.83764 3.89924 3.30156 3.59389 3.89269C3.31268 4.43711 3.1416 4.97086 3.1416 6.46626V15.2159C3.1416 16.7113 3.31268 17.2451 3.59389 17.7895C3.89924 18.3806 4.34732 18.8446 4.91826 19.1607C5.44409 19.4519 5.95961 19.629 7.40395 19.629H20.5378C21.9821 19.629 22.4977 19.4519 23.0235 19.1607C23.5944 18.8446 24.0425 18.3806 24.3478 17.7895C24.6291 17.2451 24.8001 16.7113 24.8001 15.2159V6.46626C24.8001 4.97086 24.6291 4.43711 24.3478 3.89269C24.0425 3.30156 23.5944 2.83764 23.0235 2.5215C22.4977 2.23035 21.9821 2.05322 20.5378 2.05322Z" fill="#FF4B4B" stroke="white" stroke-width="4"/>
<path d="M13.8347 13.1879L12.6806 13.8161C12.3289 14.0075 11.8939 13.8676 11.709 13.5034C11.6354 13.3584 11.61 13.1924 11.6368 13.0309L11.8572 11.7004C11.8734 11.6021 11.842 11.5018 11.773 11.4322L10.8393 10.4899C10.5548 10.2028 10.549 9.73121 10.8263 9.43663C10.9368 9.31933 11.0815 9.24299 11.238 9.21943L12.5283 9.02532C12.6237 9.01097 12.7061 8.94898 12.7487 8.85954L13.3257 7.64902C13.5016 7.28012 13.9329 7.12867 14.2892 7.31073C14.4311 7.38322 14.546 7.50212 14.616 7.64902L15.193 8.85954C15.2357 8.94898 15.3181 9.01097 15.4134 9.02532L16.7037 9.21943C17.0969 9.27859 17.3693 9.65656 17.3122 10.0637C17.2894 10.2258 17.2157 10.3756 17.1024 10.4899L16.1687 11.4322C16.0997 11.5018 16.0683 11.6021 16.0846 11.7004L16.305 13.0309C16.3721 13.4364 16.1091 13.8214 15.7175 13.891C15.5616 13.9187 15.4012 13.8923 15.2611 13.8161L14.1071 13.1879C14.0218 13.1415 13.9199 13.1415 13.8347 13.1879Z" fill="#FFC300"/>
<g filter="url(#filter0_dd_155_5452)">
<path d="M20.5378 2.05322H7.40395C5.95961 2.05322 5.44409 2.23035 4.91826 2.5215C4.34732 2.83764 3.89924 3.30156 3.59389 3.89269C3.31268 4.43711 3.1416 4.97086 3.1416 6.46626V15.2159C3.1416 16.7113 3.31268 17.2451 3.59389 17.7895C3.89924 18.3806 4.34732 18.8446 4.91826 19.1607C5.44409 19.4519 5.95961 19.629 7.40395 19.629H20.5378C21.9821 19.629 22.4977 19.4519 23.0235 19.1607C23.5944 18.8446 24.0425 18.3806 24.3478 17.7895C24.6291 17.2451 24.8001 16.7113 24.8001 15.2159V6.46626C24.8001 4.97086 24.6291 4.43711 24.3478 3.89269C24.0425 3.30156 23.5944 2.83764 23.0235 2.5215C22.4977 2.23035 21.9821 2.05322 20.5378 2.05322Z" fill="#FF4B4B" stroke="white"/>
<path d="M12.8 2.65918H9.28784V19.0228H12.8V2.65918Z" fill="#EEEEEE"/>
<path d="M24.2148 12.6593V9.02295L3.72704 9.02295V12.6593L24.2148 12.6593Z" fill="#EEEEEE"/>
</g>
<defs>
<filter id="filter0_dd_155_5452" x="0.641602" y="0.553223" width="26.6584" height="22.5757" filterUnits="userSpaceOnUse" color-interpolation-filters="sRGB">
<feFlood flood-opacity="0" result="BackgroundImageFix"/>
<feColorMatrix in="SourceAlpha" type="matrix" values="0 0 0 0 0 0 0 0 0 0 0 0 0 0 0 0 0 0 127 0" result="hardAlpha"/>
<feOffset dy="1"/>
<feGaussianBlur stdDeviation="1"/>
<feComposite in2="hardAlpha" operator="out"/>
<feColorMatrix type="matrix" values="0 0 0 0 0 0 0 0 0 0 0 0 0 0 0 0 0 0 0.1 0"/>
<feBlend mode="normal" in2="BackgroundImageFix" result="effect1_dropShadow_155_5452"/>
<feColorMatrix in="SourceAlpha" type="matrix" values="0 0 0 0 0 0 0 0 0 0 0 0 0 0 0 0 0 0 127 0" result="hardAlpha"/>
<feOffset dy="1"/>
<feGaussianBlur stdDeviation="0.5"/>
<feComposite in2="hardAlpha" operator="out"/>
<feColorMatrix type="matrix" values="0 0 0 0 0 0 0 0 0 0 0 0 0 0 0 0 0 0 0.06 0"/>
<feBlend mode="normal" in2="effect1_dropShadow_155_5452" result="effect2_dropShadow_155_5452"/>
<feBlend mode="normal" in="SourceGraphic" in2="effect2_dropShadow_155_5452" result="shape"/>
</filter>
</defs>
</svg>
