<svg width="24" height="20" viewBox="0 0 24 20" fill="none" xmlns="http://www.w3.org/2000/svg">
<g clip-path="url(#clip0_122_7927)">
<g filter="url(#filter0_dd_122_7927)">
<path d="M18.5668 1.21216H5.43301C3.98866 1.21216 3.47314 1.38928 2.94732 1.68044C2.37637 1.99658 1.92829 2.4605 1.62294 3.05163C1.34173 3.59604 1.17065 4.12979 1.17065 5.6252V14.3749C1.17065 15.8703 1.34173 16.404 1.62294 16.9484C1.92829 17.5396 2.37637 18.0035 2.94732 18.3196C3.47314 18.6108 3.98866 18.7879 5.43301 18.7879H18.5668C20.0112 18.7879 20.5267 18.6108 21.0525 18.3196C21.6235 18.0035 22.0716 17.5396 22.3769 16.9484C22.6581 16.404 22.8292 15.8703 22.8292 14.3749V5.6252C22.8292 4.12979 22.6581 3.59604 22.3769 3.05163C22.0716 2.4605 21.6235 1.99658 21.0525 1.68044C20.5267 1.38928 20.0112 1.21216 18.5668 1.21216Z" fill="#EEEEEE" stroke="white"/>
<path d="M5.43309 1.81812H18.5669C19.8455 1.81812 20.3091 1.95595 20.7766 2.21477C21.244 2.47359 21.6108 2.85339 21.8608 3.33734C22.1108 3.8213 22.2439 4.30133 22.2439 5.6251V6.6666H1.7561V5.6251C1.7561 4.30133 1.88923 3.8213 2.13921 3.33734C2.38919 2.85339 2.75603 2.47359 3.22346 2.21477C3.69088 1.95595 4.15452 1.81812 5.43309 1.81812Z" fill="#FF9600"/>
<path d="M22.2439 13.3333V14.3748C22.2439 15.6985 22.1108 16.1786 21.8608 16.6625C21.6108 17.1465 21.244 17.5263 20.7766 17.7851C20.3091 18.0439 19.8455 18.1817 18.5669 18.1817H5.43309C4.15452 18.1817 3.69088 18.0439 3.22346 17.7851C2.75603 17.5263 2.38919 17.1465 2.13921 16.6625C1.88923 16.1786 1.7561 15.6985 1.7561 14.3748V13.3333H22.2439Z" fill="#7AC70C"/>
<path d="M11.9999 12.4242C10.7068 12.4242 9.65845 11.3388 9.65845 9.99993C9.65845 8.66105 10.7068 7.57568 11.9999 7.57568C13.2931 7.57568 14.3414 8.66105 14.3414 9.99993C14.3414 11.3388 13.2931 12.4242 11.9999 12.4242ZM11.9999 11.212C12.6465 11.212 13.1706 10.6694 13.1706 9.99993C13.1706 9.33049 12.6465 8.7878 11.9999 8.7878C11.3533 8.7878 10.8292 9.33049 10.8292 9.99993C10.8292 10.6694 11.3533 11.212 11.9999 11.212Z" fill="#1CB0F6"/>
</g>
</g>
<defs>
<filter id="filter0_dd_122_7927" x="-1.32935" y="-0.287842" width="26.6584" height="22.5757" filterUnits="userSpaceOnUse" color-interpolation-filters="sRGB">
<feFlood flood-opacity="0" result="BackgroundImageFix"/>
<feColorMatrix in="SourceAlpha" type="matrix" values="0 0 0 0 0 0 0 0 0 0 0 0 0 0 0 0 0 0 127 0" result="hardAlpha"/>
<feOffset dy="1"/>
<feGaussianBlur stdDeviation="1"/>
<feComposite in2="hardAlpha" operator="out"/>
<feColorMatrix type="matrix" values="0 0 0 0 0 0 0 0 0 0 0 0 0 0 0 0 0 0 0.1 0"/>
<feBlend mode="normal" in2="BackgroundImageFix" result="effect1_dropShadow_122_7927"/>
<feColorMatrix in="SourceAlpha" type="matrix" values="0 0 0 0 0 0 0 0 0 0 0 0 0 0 0 0 0 0 127 0" result="hardAlpha"/>
<feOffset dy="1"/>
<feGaussianBlur stdDeviation="0.5"/>
<feComposite in2="hardAlpha" operator="out"/>
<feColorMatrix type="matrix" values="0 0 0 0 0 0 0 0 0 0 0 0 0 0 0 0 0 0 0.06 0"/>
<feBlend mode="normal" in2="effect1_dropShadow_122_7927" result="effect2_dropShadow_122_7927"/>
<feBlend mode="normal" in="SourceGraphic" in2="effect2_dropShadow_122_7927" result="shape"/>
</filter>
<clipPath id="clip0_122_7927">
<rect width="24" height="20" fill="white"/>
</clipPath>
</defs>
</svg>
