<svg width="24" height="20" viewBox="0 0 24 20" fill="none" xmlns="http://www.w3.org/2000/svg">
<g clip-path="url(#clip0_122_7930)">
<g filter="url(#filter0_dd_122_7930)">
<path fill-rule="evenodd" clip-rule="evenodd" d="M18.5668 1.21216H5.43301C3.98866 1.21216 3.47314 1.38928 2.94732 1.68044C2.37637 1.99658 1.92829 2.4605 1.62294 3.05163C1.34173 3.59604 1.17065 4.12979 1.17065 5.6252V14.3749C1.17065 15.8703 1.34173 16.404 1.62294 16.9484C1.92829 17.5396 2.37637 18.0035 2.94732 18.3196C3.47314 18.6108 3.98866 18.7879 5.43301 18.7879H18.5668C20.0112 18.7879 20.5267 18.6108 21.0525 18.3196C21.6235 18.0035 22.0716 17.5396 22.3769 16.9484C22.6581 16.404 22.8292 15.8703 22.8292 14.3749V5.6252C22.8292 4.12979 22.6581 3.59604 22.3769 3.05163C22.0716 2.4605 21.6235 1.99658 21.0525 1.68044C20.5267 1.38928 20.0112 1.21216 18.5668 1.21216Z" fill="#EEEEEE" stroke="white"/>
<path d="M11.9999 14.2424C14.2629 14.2424 16.0975 12.343 16.0975 9.99999C16.0975 7.65697 14.2629 5.75757 11.9999 5.75757C9.73688 5.75757 7.90234 7.65697 7.90234 9.99999C7.90234 12.343 9.73688 14.2424 11.9999 14.2424Z" fill="#FF4B4B"/>
</g>
</g>
<defs>
<filter id="filter0_dd_122_7930" x="-1.32935" y="-0.287842" width="26.6584" height="22.5757" filterUnits="userSpaceOnUse" color-interpolation-filters="sRGB">
<feFlood flood-opacity="0" result="BackgroundImageFix"/>
<feColorMatrix in="SourceAlpha" type="matrix" values="0 0 0 0 0 0 0 0 0 0 0 0 0 0 0 0 0 0 127 0" result="hardAlpha"/>
<feOffset dy="1"/>
<feGaussianBlur stdDeviation="1"/>
<feComposite in2="hardAlpha" operator="out"/>
<feColorMatrix type="matrix" values="0 0 0 0 0 0 0 0 0 0 0 0 0 0 0 0 0 0 0.1 0"/>
<feBlend mode="normal" in2="BackgroundImageFix" result="effect1_dropShadow_122_7930"/>
<feColorMatrix in="SourceAlpha" type="matrix" values="0 0 0 0 0 0 0 0 0 0 0 0 0 0 0 0 0 0 127 0" result="hardAlpha"/>
<feOffset dy="1"/>
<feGaussianBlur stdDeviation="0.5"/>
<feComposite in2="hardAlpha" operator="out"/>
<feColorMatrix type="matrix" values="0 0 0 0 0 0 0 0 0 0 0 0 0 0 0 0 0 0 0.06 0"/>
<feBlend mode="normal" in2="effect1_dropShadow_122_7930" result="effect2_dropShadow_122_7930"/>
<feBlend mode="normal" in="SourceGraphic" in2="effect2_dropShadow_122_7930" result="shape"/>
</filter>
<clipPath id="clip0_122_7930">
<rect width="24" height="20" fill="white"/>
</clipPath>
</defs>
</svg>
