<svg width="24" height="20" viewBox="0 0 24 20" fill="none" xmlns="http://www.w3.org/2000/svg">
<g clip-path="url(#clip0_122_7932)">
<g filter="url(#filter0_dd_122_7932)">
<path d="M18.5668 1.21216H5.43301C3.98866 1.21216 3.47314 1.38928 2.94732 1.68044C2.37637 1.99658 1.92829 2.4605 1.62294 3.05163C1.34173 3.59604 1.17065 4.12979 1.17065 5.6252V14.3749C1.17065 15.8703 1.34173 16.404 1.62294 16.9484C1.92829 17.5396 2.37637 18.0035 2.94732 18.3196C3.47314 18.6108 3.98866 18.7879 5.43301 18.7879H18.5668C20.0112 18.7879 20.5267 18.6108 21.0525 18.3196C21.6235 18.0035 22.0716 17.5396 22.3769 16.9484C22.6581 16.404 22.8292 15.8703 22.8292 14.3749V5.6252C22.8292 4.12979 22.6581 3.59604 22.3769 3.05163C22.0716 2.4605 21.6235 1.99658 21.0525 1.68044C20.5267 1.38928 20.0112 1.21216 18.5668 1.21216Z" fill="#EEEEEE" stroke="white"/>
<path d="M8.67074 1.81812V18.1818H5.43309C4.15452 18.1818 3.69088 18.0439 3.22346 17.7851C2.75603 17.5263 2.38919 17.1465 2.13921 16.6625C1.88923 16.1786 1.7561 15.6985 1.7561 14.3748V5.6251C1.7561 4.30133 1.88923 3.82129 2.13921 3.33734C2.38919 2.85339 2.75603 2.47359 3.22346 2.21477C3.69088 1.95595 4.15452 1.81812 5.43309 1.81812H8.67074Z" fill="#78C800"/>
<path d="M15.3291 1.81812H18.5667C19.8453 1.81812 20.309 1.95595 20.7764 2.21477C21.2438 2.47359 21.6106 2.85339 21.8606 3.33734C22.1106 3.82129 22.2437 4.30133 22.2437 5.6251V14.3748C22.2437 15.6985 22.1106 16.1786 21.8606 16.6625C21.6106 17.1465 21.2438 17.5263 20.7764 17.7851C20.309 18.0439 19.8453 18.1818 18.5667 18.1818H15.3291V1.81812Z" fill="#FF4B4B"/>
</g>
<g filter="url(#filter1_dd_122_7932)">
<path d="M9.58643 10.644C10.0031 11.5612 10.9271 12.199 12.0001 12.199C13.0731 12.199 13.9972 11.5612 14.4138 10.644" stroke="#78C800" stroke-linecap="round"/>
</g>
<g filter="url(#filter2_dd_122_7932)">
<circle cx="11.9999" cy="9.44038" r="1.63911" fill="#4B4B4B"/>
</g>
</g>
<defs>
<filter id="filter0_dd_122_7932" x="-1.32935" y="-0.287842" width="26.6584" height="22.5757" filterUnits="userSpaceOnUse" color-interpolation-filters="sRGB">
<feFlood flood-opacity="0" result="BackgroundImageFix"/>
<feColorMatrix in="SourceAlpha" type="matrix" values="0 0 0 0 0 0 0 0 0 0 0 0 0 0 0 0 0 0 127 0" result="hardAlpha"/>
<feOffset dy="1"/>
<feGaussianBlur stdDeviation="1"/>
<feComposite in2="hardAlpha" operator="out"/>
<feColorMatrix type="matrix" values="0 0 0 0 0 0 0 0 0 0 0 0 0 0 0 0 0 0 0.1 0"/>
<feBlend mode="normal" in2="BackgroundImageFix" result="effect1_dropShadow_122_7932"/>
<feColorMatrix in="SourceAlpha" type="matrix" values="0 0 0 0 0 0 0 0 0 0 0 0 0 0 0 0 0 0 127 0" result="hardAlpha"/>
<feOffset dy="1"/>
<feGaussianBlur stdDeviation="0.5"/>
<feComposite in2="hardAlpha" operator="out"/>
<feColorMatrix type="matrix" values="0 0 0 0 0 0 0 0 0 0 0 0 0 0 0 0 0 0 0.06 0"/>
<feBlend mode="normal" in2="effect1_dropShadow_122_7932" result="effect2_dropShadow_122_7932"/>
<feBlend mode="normal" in="SourceGraphic" in2="effect2_dropShadow_122_7932" result="shape"/>
</filter>
<filter id="filter1_dd_122_7932" x="7.08618" y="9.1438" width="9.82788" height="6.55518" filterUnits="userSpaceOnUse" color-interpolation-filters="sRGB">
<feFlood flood-opacity="0" result="BackgroundImageFix"/>
<feColorMatrix in="SourceAlpha" type="matrix" values="0 0 0 0 0 0 0 0 0 0 0 0 0 0 0 0 0 0 127 0" result="hardAlpha"/>
<feOffset dy="1"/>
<feGaussianBlur stdDeviation="1"/>
<feComposite in2="hardAlpha" operator="out"/>
<feColorMatrix type="matrix" values="0 0 0 0 0 0 0 0 0 0 0 0 0 0 0 0 0 0 0.1 0"/>
<feBlend mode="normal" in2="BackgroundImageFix" result="effect1_dropShadow_122_7932"/>
<feColorMatrix in="SourceAlpha" type="matrix" values="0 0 0 0 0 0 0 0 0 0 0 0 0 0 0 0 0 0 127 0" result="hardAlpha"/>
<feOffset dy="1"/>
<feGaussianBlur stdDeviation="0.5"/>
<feComposite in2="hardAlpha" operator="out"/>
<feColorMatrix type="matrix" values="0 0 0 0 0 0 0 0 0 0 0 0 0 0 0 0 0 0 0.06 0"/>
<feBlend mode="normal" in2="effect1_dropShadow_122_7932" result="effect2_dropShadow_122_7932"/>
<feBlend mode="normal" in="SourceGraphic" in2="effect2_dropShadow_122_7932" result="shape"/>
</filter>
<filter id="filter2_dd_122_7932" x="8.36084" y="6.80127" width="7.27832" height="7.27832" filterUnits="userSpaceOnUse" color-interpolation-filters="sRGB">
<feFlood flood-opacity="0" result="BackgroundImageFix"/>
<feColorMatrix in="SourceAlpha" type="matrix" values="0 0 0 0 0 0 0 0 0 0 0 0 0 0 0 0 0 0 127 0" result="hardAlpha"/>
<feOffset dy="1"/>
<feGaussianBlur stdDeviation="1"/>
<feComposite in2="hardAlpha" operator="out"/>
<feColorMatrix type="matrix" values="0 0 0 0 0 0 0 0 0 0 0 0 0 0 0 0 0 0 0.1 0"/>
<feBlend mode="normal" in2="BackgroundImageFix" result="effect1_dropShadow_122_7932"/>
<feColorMatrix in="SourceAlpha" type="matrix" values="0 0 0 0 0 0 0 0 0 0 0 0 0 0 0 0 0 0 127 0" result="hardAlpha"/>
<feOffset dy="1"/>
<feGaussianBlur stdDeviation="0.5"/>
<feComposite in2="hardAlpha" operator="out"/>
<feColorMatrix type="matrix" values="0 0 0 0 0 0 0 0 0 0 0 0 0 0 0 0 0 0 0.06 0"/>
<feBlend mode="normal" in2="effect1_dropShadow_122_7932" result="effect2_dropShadow_122_7932"/>
<feBlend mode="normal" in="SourceGraphic" in2="effect2_dropShadow_122_7932" result="shape"/>
</filter>
<clipPath id="clip0_122_7932">
<rect width="24" height="20" fill="white"/>
</clipPath>
</defs>
</svg>
