<svg width="28" height="24" viewBox="0 0 28 24" fill="none" xmlns="http://www.w3.org/2000/svg">
<g filter="url(#filter0_dd_155_5355)">
<path d="M20.5668 2.21216H7.43301C5.98866 2.21216 5.47314 2.38928 4.94732 2.68044C4.37637 2.99658 3.92829 3.4605 3.62294 4.05163C3.34173 4.59604 3.17065 5.12979 3.17065 6.6252V15.3749C3.17065 16.8703 3.34173 17.404 3.62294 17.9484C3.92829 18.5396 4.37637 19.0035 4.94732 19.3196C5.47314 19.6108 5.98866 19.7879 7.43301 19.7879H20.5668C22.0112 19.7879 22.5267 19.6108 23.0525 19.3196C23.6235 19.0035 24.0716 18.5396 24.3769 17.9484C24.6581 17.404 24.8292 16.8703 24.8292 15.3749V6.6252C24.8292 5.12979 24.6581 4.59604 24.3769 4.05163C24.0716 3.4605 23.6235 2.99658 23.0525 2.68044C22.5267 2.38928 22.0112 2.21216 20.5668 2.21216Z" fill="#FF4B4B" stroke="white"/>
<path d="M24.3195 11.0376V15.449C24.3195 16.7839 24.1853 17.2679 23.9332 17.7559C23.6811 18.2439 23.3112 18.6269 22.8399 18.8879C22.3686 19.1488 21.901 19.2878 20.6118 19.2878H7.36813C6.07887 19.2878 5.61136 19.1488 5.14002 18.8879C4.66869 18.6269 4.29878 18.2439 4.04671 17.7559C3.79464 17.2679 3.6604 16.7839 3.6604 15.449V11.0376H24.3195Z" fill="#EEEEEE"/>
</g>
<defs>
<filter id="filter0_dd_155_5355" x="0.670654" y="0.712158" width="26.6584" height="22.5757" filterUnits="userSpaceOnUse" color-interpolation-filters="sRGB">
<feFlood flood-opacity="0" result="BackgroundImageFix"/>
<feColorMatrix in="SourceAlpha" type="matrix" values="0 0 0 0 0 0 0 0 0 0 0 0 0 0 0 0 0 0 127 0" result="hardAlpha"/>
<feOffset dy="1"/>
<feGaussianBlur stdDeviation="1"/>
<feComposite in2="hardAlpha" operator="out"/>
<feColorMatrix type="matrix" values="0 0 0 0 0 0 0 0 0 0 0 0 0 0 0 0 0 0 0.1 0"/>
<feBlend mode="normal" in2="BackgroundImageFix" result="effect1_dropShadow_155_5355"/>
<feColorMatrix in="SourceAlpha" type="matrix" values="0 0 0 0 0 0 0 0 0 0 0 0 0 0 0 0 0 0 127 0" result="hardAlpha"/>
<feOffset dy="1"/>
<feGaussianBlur stdDeviation="0.5"/>
<feComposite in2="hardAlpha" operator="out"/>
<feColorMatrix type="matrix" values="0 0 0 0 0 0 0 0 0 0 0 0 0 0 0 0 0 0 0.06 0"/>
<feBlend mode="normal" in2="effect1_dropShadow_155_5355" result="effect2_dropShadow_155_5355"/>
<feBlend mode="normal" in="SourceGraphic" in2="effect2_dropShadow_155_5355" result="shape"/>
</filter>
</defs>
</svg>
