<svg width="24" height="20" viewBox="0 0 24 20" fill="none" xmlns="http://www.w3.org/2000/svg">
<g clip-path="url(#clip0_122_7929)">
<g filter="url(#filter0_dd_122_7929)">
<path fill-rule="evenodd" clip-rule="evenodd" d="M18.5668 1.21216H5.43301C3.98866 1.21216 3.47314 1.38928 2.94732 1.68044C2.37637 1.99658 1.92829 2.4605 1.62294 3.05163C1.34173 3.59604 1.17065 4.12979 1.17065 5.6252V14.3749C1.17065 15.8703 1.34173 16.404 1.62294 16.9484C1.92829 17.5396 2.37637 18.0035 2.94732 18.3196C3.47314 18.6108 3.98866 18.7879 5.43301 18.7879H18.5668C20.0112 18.7879 20.5267 18.6108 21.0525 18.3196C21.6235 18.0035 22.0716 17.5396 22.3769 16.9484C22.6581 16.404 22.8292 15.8703 22.8292 14.3749V5.6252C22.8292 4.12979 22.6581 3.59604 22.3769 3.05163C22.0716 2.4605 21.6235 1.99658 21.0525 1.68044C20.5267 1.38928 20.0112 1.21216 18.5668 1.21216Z" fill="#EEEEEE" stroke="white"/>
<path d="M11.9999 13.9393C14.1013 13.9393 15.8048 12.1756 15.8048 9.99994C15.8048 7.82427 14.1013 6.06055 11.9999 6.06055C9.89857 6.06055 8.19507 7.82427 8.19507 9.99994C8.19507 12.1756 9.89857 13.9393 11.9999 13.9393Z" fill="#FF4B4B"/>
<path d="M8.19775 10.1523C8.84863 10.8557 9.48961 11.2075 10.1207 11.2075C10.7527 11.2075 11.3819 10.8547 12.0082 10.1493C12.5808 9.4438 13.1976 9.09106 13.8584 9.09106C14.4954 9.09106 15.144 9.41891 15.8041 10.0746C15.7657 12.2159 14.0772 13.9395 11.9998 13.9395C9.94767 13.9395 8.27496 12.2574 8.19775 10.1523Z" fill="#1CB0F6"/>
<path d="M6.74736 16.2533L4.17361 13.5946C4.02342 13.4394 4.02315 13.1876 4.173 13.0321C4.32284 12.8766 4.56607 12.8763 4.71626 13.0315L7.29001 15.6902C7.4402 15.8453 7.44047 16.0971 7.29063 16.2526C7.14078 16.4081 6.89755 16.4084 6.74736 16.2533Z" fill="#4C4C4C"/>
<path d="M18.2951 8.01305L17.3626 7.0462C17.2127 6.89077 17.2128 6.63895 17.3629 6.48373C17.5131 6.32851 17.7563 6.32869 17.9062 6.48412L18.8388 7.45097C18.9887 7.60639 18.9885 7.85822 18.8384 8.01344C18.6883 8.16865 18.445 8.16848 18.2951 8.01305Z" fill="#4C4C4C"/>
<path d="M4.46016 6.99398C4.30997 7.14913 4.06674 7.14884 3.91689 6.99335C3.76705 6.83785 3.76732 6.58602 3.91751 6.43088L6.49126 3.77218C6.64145 3.61703 6.88468 3.61732 7.03452 3.77282C7.18437 3.92832 7.1841 4.18014 7.03391 4.33529L4.46016 6.99398Z" fill="#4C4C4C"/>
<path d="M16.5925 6.25433L15.722 5.35506C15.5718 5.19992 15.5715 4.94809 15.7213 4.79259C15.8712 4.63709 16.1144 4.63681 16.2646 4.79195L17.1351 5.69122C17.2853 5.84637 17.2856 6.0982 17.1358 6.25369C16.9859 6.40919 16.7427 6.40948 16.5925 6.25433Z" fill="#4C4C4C"/>
<path d="M6.05587 13.4355L5.18533 12.5362C5.03514 12.3811 5.03487 12.1292 5.18472 11.9737C5.33456 11.8182 5.57779 11.818 5.72798 11.9731L6.59852 12.8724C6.74871 13.0275 6.74898 13.2793 6.59913 13.4348C6.44929 13.5903 6.20606 13.5906 6.05587 13.4355Z" fill="#4C4C4C"/>
<path d="M16.2407 15.1949C16.0905 15.3501 15.8473 15.3498 15.6974 15.1943C15.5476 15.0388 15.5478 14.787 15.698 14.6318L18.2718 11.9731C18.422 11.818 18.6652 11.8182 18.815 11.9737C18.9649 12.1292 18.9646 12.3811 18.8144 12.5362L16.2407 15.1949Z" fill="#4C4C4C"/>
<path d="M19.3195 6.95494L18.387 5.9881C18.2371 5.83267 18.2372 5.58084 18.3874 5.42562C18.5375 5.27041 18.7807 5.27058 18.9306 5.42601L19.8632 6.39286C20.0131 6.54829 20.0129 6.80012 19.8628 6.95533C19.7127 7.11055 19.4695 7.11037 19.3195 6.95494Z" fill="#4C4C4C"/>
<path d="M5.48457 8.05209C5.33438 8.20724 5.09116 8.20695 4.94131 8.05145C4.79146 7.89595 4.79174 7.64413 4.94192 7.48898L7.51567 4.83028C7.66586 4.67514 7.90909 4.67542 8.05894 4.83092C8.20879 4.98642 8.20851 5.23825 8.05832 5.39339L5.48457 8.05209Z" fill="#4C4C4C"/>
<path d="M17.2651 16.2533C17.1149 16.4084 16.8717 16.4081 16.7218 16.2526C16.572 16.0971 16.5723 15.8453 16.7224 15.6902L19.2962 13.0315C19.4464 12.8763 19.6896 12.8766 19.8395 13.0321C19.9893 13.1876 19.989 13.4394 19.8388 13.5946L17.2651 16.2533Z" fill="#4C4C4C"/>
<path d="M17.6169 5.19598L16.7464 4.29671C16.5962 4.14157 16.5959 3.88974 16.7458 3.73424C16.8956 3.57874 17.1388 3.57846 17.289 3.7336L18.1596 4.63287C18.3097 4.78802 18.31 5.03984 18.1602 5.19534C18.0103 5.35084 17.7671 5.35113 17.6169 5.19598Z" fill="#4C4C4C"/>
<path d="M7.7585 15.1944L6.82595 14.2276C6.67604 14.0722 6.6762 13.8203 6.82632 13.6651C6.97644 13.5099 7.21967 13.5101 7.36959 13.6655L8.30214 14.6324C8.45206 14.7878 8.45189 15.0396 8.30177 15.1948C8.15165 15.3501 7.90842 15.3499 7.7585 15.1944Z" fill="#4C4C4C"/>
</g>
</g>
<defs>
<filter id="filter0_dd_122_7929" x="-1.32935" y="-0.287842" width="26.6584" height="22.5757" filterUnits="userSpaceOnUse" color-interpolation-filters="sRGB">
<feFlood flood-opacity="0" result="BackgroundImageFix"/>
<feColorMatrix in="SourceAlpha" type="matrix" values="0 0 0 0 0 0 0 0 0 0 0 0 0 0 0 0 0 0 127 0" result="hardAlpha"/>
<feOffset dy="1"/>
<feGaussianBlur stdDeviation="1"/>
<feComposite in2="hardAlpha" operator="out"/>
<feColorMatrix type="matrix" values="0 0 0 0 0 0 0 0 0 0 0 0 0 0 0 0 0 0 0.1 0"/>
<feBlend mode="normal" in2="BackgroundImageFix" result="effect1_dropShadow_122_7929"/>
<feColorMatrix in="SourceAlpha" type="matrix" values="0 0 0 0 0 0 0 0 0 0 0 0 0 0 0 0 0 0 127 0" result="hardAlpha"/>
<feOffset dy="1"/>
<feGaussianBlur stdDeviation="0.5"/>
<feComposite in2="hardAlpha" operator="out"/>
<feColorMatrix type="matrix" values="0 0 0 0 0 0 0 0 0 0 0 0 0 0 0 0 0 0 0.06 0"/>
<feBlend mode="normal" in2="effect1_dropShadow_122_7929" result="effect2_dropShadow_122_7929"/>
<feBlend mode="normal" in="SourceGraphic" in2="effect2_dropShadow_122_7929" result="shape"/>
</filter>
<clipPath id="clip0_122_7929">
<rect width="24" height="20" fill="white"/>
</clipPath>
</defs>
</svg>
