<svg width="24" height="20" viewBox="0 0 24 20" fill="none" xmlns="http://www.w3.org/2000/svg">
<g clip-path="url(#clip0_122_7933)">
<g filter="url(#filter0_dd_122_7933)">
<path fill-rule="evenodd" clip-rule="evenodd" d="M18.5668 1.21216H5.43301C3.98866 1.21216 3.47314 1.38928 2.94732 1.68044C2.37637 1.99658 1.92829 2.4605 1.62294 3.05163C1.34173 3.59604 1.17065 4.12979 1.17065 5.6252V14.3749C1.17065 15.8703 1.34173 16.404 1.62294 16.9484C1.92829 17.5396 2.37637 18.0035 2.94732 18.3196C3.47314 18.6108 3.98866 18.7879 5.43301 18.7879H18.5668C20.0112 18.7879 20.5267 18.6108 21.0525 18.3196C21.6235 18.0035 22.0716 17.5396 22.3769 16.9484C22.6581 16.404 22.8292 15.8703 22.8292 14.3749V5.6252C22.8292 4.12979 22.6581 3.59604 22.3769 3.05163C22.0716 2.4605 21.6235 1.99658 21.0525 1.68044C20.5267 1.38928 20.0112 1.21216 18.5668 1.21216Z" fill="#FF4B4B" stroke="white"/>
<path fill-rule="evenodd" clip-rule="evenodd" d="M1.7561 6.49365H22.2439V13.5066H1.7561V6.49365Z" fill="#FFC800"/>
<path fill-rule="evenodd" clip-rule="evenodd" d="M9.7234 8.24683C10.0377 8.24683 10.2925 8.51063 10.2925 8.83605V11.1641C10.2925 11.4895 10.0377 11.7533 9.7234 11.7533C9.40909 11.7533 9.1543 11.4895 9.1543 11.1641V8.83605C9.1543 8.51063 9.40909 8.24683 9.7234 8.24683Z" fill="white"/>
<path fill-rule="evenodd" clip-rule="evenodd" d="M4.03248 8.24683C4.34679 8.24683 4.60159 8.51063 4.60159 8.83605V11.1641C4.60159 11.4895 4.34679 11.7533 4.03248 11.7533C3.71818 11.7533 3.46338 11.4895 3.46338 11.1641V8.83605C3.46338 8.51063 3.71818 8.24683 4.03248 8.24683Z" fill="white"/>
<path fill-rule="evenodd" clip-rule="evenodd" d="M5.68285 7.66235H8.07309C8.35597 7.66235 8.58529 7.89978 8.58529 8.19266V10.57C8.58529 11.5463 7.8209 12.3377 6.87797 12.3377C5.93505 12.3377 5.17065 11.5463 5.17065 10.57V8.19266C5.17065 7.89978 5.39997 7.66235 5.68285 7.66235Z" fill="#FF4B4B"/>
</g>
</g>
<defs>
<filter id="filter0_dd_122_7933" x="-1.32935" y="-0.287842" width="26.6584" height="22.5757" filterUnits="userSpaceOnUse" color-interpolation-filters="sRGB">
<feFlood flood-opacity="0" result="BackgroundImageFix"/>
<feColorMatrix in="SourceAlpha" type="matrix" values="0 0 0 0 0 0 0 0 0 0 0 0 0 0 0 0 0 0 127 0" result="hardAlpha"/>
<feOffset dy="1"/>
<feGaussianBlur stdDeviation="1"/>
<feComposite in2="hardAlpha" operator="out"/>
<feColorMatrix type="matrix" values="0 0 0 0 0 0 0 0 0 0 0 0 0 0 0 0 0 0 0.1 0"/>
<feBlend mode="normal" in2="BackgroundImageFix" result="effect1_dropShadow_122_7933"/>
<feColorMatrix in="SourceAlpha" type="matrix" values="0 0 0 0 0 0 0 0 0 0 0 0 0 0 0 0 0 0 127 0" result="hardAlpha"/>
<feOffset dy="1"/>
<feGaussianBlur stdDeviation="0.5"/>
<feComposite in2="hardAlpha" operator="out"/>
<feColorMatrix type="matrix" values="0 0 0 0 0 0 0 0 0 0 0 0 0 0 0 0 0 0 0.06 0"/>
<feBlend mode="normal" in2="effect1_dropShadow_122_7933" result="effect2_dropShadow_122_7933"/>
<feBlend mode="normal" in="SourceGraphic" in2="effect2_dropShadow_122_7933" result="shape"/>
</filter>
<clipPath id="clip0_122_7933">
<rect width="24" height="20" fill="white"/>
</clipPath>
</defs>
</svg>
