<svg width="28" height="22" viewBox="0 0 28 22" fill="none" xmlns="http://www.w3.org/2000/svg">
<g filter="url(#filter0_dd_122_7652)">
<path d="M7.43285 2.87109H20.5667C21.8452 2.87109 22.3089 3.00893 22.7763 3.26775C23.2437 3.52656 23.6106 3.90637 23.8606 4.39032C24.1105 4.87427 24.2437 5.3543 24.2437 6.67807V15.4277C24.2437 16.7515 24.1105 17.2316 23.8606 17.7155C23.6106 18.1995 23.2437 18.5793 22.7763 18.8381C22.3089 19.0969 21.8452 19.2347 20.5667 19.2347H7.43285C6.15428 19.2347 5.69064 19.0969 5.22321 18.8381C4.75579 18.5793 4.38895 18.1995 4.13897 17.7155C3.88898 17.2316 3.75586 16.7515 3.75586 15.4277V6.67807C3.75586 5.3543 3.88898 4.87427 4.13897 4.39032C4.38895 3.90637 4.75579 3.52656 5.22321 3.26775C5.69064 3.00893 6.15428 2.87109 7.43285 2.87109Z" fill="#EEEEEE"/>
<path d="M20.5666 2.26514H7.43276C5.98842 2.26514 5.47289 2.44226 4.94707 2.73342C4.37613 3.04956 3.92804 3.51348 3.6227 4.10461C3.34149 4.64902 3.17041 5.18277 3.17041 6.67818V15.4279C3.17041 16.9233 3.34149 17.457 3.6227 18.0014C3.92804 18.5925 4.37613 19.0565 4.94707 19.3726C5.47289 19.6638 5.98842 19.8409 7.43276 19.8409H20.5666C22.0109 19.8409 22.5265 19.6638 23.0523 19.3726C23.6232 19.0565 24.0713 18.5925 24.3767 18.0014C24.6579 17.457 24.8289 16.9233 24.8289 15.4279V6.67818C24.8289 5.18277 24.6579 4.64902 24.3767 4.10461C24.0713 3.51348 23.6232 3.04956 23.0523 2.73342C22.5265 2.44226 22.0109 2.26514 20.5666 2.26514Z" fill="#EEEEEE" stroke="white"/>
<path d="M24.1591 16.8105C24.0947 17.198 23.9943 17.4562 23.8604 17.7156C23.6104 18.1995 23.2435 18.5793 22.7761 18.8381C22.3087 19.097 21.8451 19.2348 20.5665 19.2348H7.43266C6.15409 19.2348 5.69045 19.097 5.22303 18.8381C4.7556 18.5793 4.38876 18.1995 4.13878 17.7156C4.00483 17.4562 3.90443 17.198 3.84009 16.8105H24.1591Z" fill="#FF4B4B"/>
<path fill-rule="evenodd" clip-rule="evenodd" d="M24.2437 7.71973V14.3864H3.75586V7.71973H24.2437Z" fill="#1CB0F6"/>
<path d="M7.43266 2.87109H20.5665C21.8451 2.87109 22.3087 3.00893 22.7761 3.26775C23.2435 3.52657 23.6104 3.90637 23.8604 4.39032C23.9943 4.64965 24.0947 4.90784 24.1591 5.29534H3.84009C3.90443 4.90784 4.00483 4.64965 4.13878 4.39032C4.38876 3.90637 4.7556 3.52657 5.22303 3.26775C5.69045 3.00893 6.15409 2.87109 7.43266 2.87109Z" fill="#FF4B4B"/>
</g>
<defs>
<filter id="filter0_dd_122_7652" x="0.67041" y="0.765137" width="26.6584" height="22.5757" filterUnits="userSpaceOnUse" color-interpolation-filters="sRGB">
<feFlood flood-opacity="0" result="BackgroundImageFix"/>
<feColorMatrix in="SourceAlpha" type="matrix" values="0 0 0 0 0 0 0 0 0 0 0 0 0 0 0 0 0 0 127 0" result="hardAlpha"/>
<feOffset dy="1"/>
<feGaussianBlur stdDeviation="1"/>
<feComposite in2="hardAlpha" operator="out"/>
<feColorMatrix type="matrix" values="0 0 0 0 0 0 0 0 0 0 0 0 0 0 0 0 0 0 0.1 0"/>
<feBlend mode="normal" in2="BackgroundImageFix" result="effect1_dropShadow_122_7652"/>
<feColorMatrix in="SourceAlpha" type="matrix" values="0 0 0 0 0 0 0 0 0 0 0 0 0 0 0 0 0 0 127 0" result="hardAlpha"/>
<feOffset dy="1"/>
<feGaussianBlur stdDeviation="0.5"/>
<feComposite in2="hardAlpha" operator="out"/>
<feColorMatrix type="matrix" values="0 0 0 0 0 0 0 0 0 0 0 0 0 0 0 0 0 0 0.06 0"/>
<feBlend mode="normal" in2="effect1_dropShadow_122_7652" result="effect2_dropShadow_122_7652"/>
<feBlend mode="normal" in="SourceGraphic" in2="effect2_dropShadow_122_7652" result="shape"/>
</filter>
</defs>
</svg>
