<svg width="28" height="23" viewBox="0 0 28 23" fill="none" xmlns="http://www.w3.org/2000/svg">
<g filter="url(#filter0_dd_155_5338)">
<mask id="mask0_155_5338" style="mask-type:alpha" maskUnits="userSpaceOnUse" x="3" y="2" width="22" height="17">
<path d="M20.5668 2.01221H7.43301C5.98866 2.01221 5.47314 2.18328 4.94732 2.4645C4.37637 2.76984 3.92829 3.21792 3.62294 3.78887C3.34173 4.31469 3.17065 4.83022 3.17065 6.27456V14.7255C3.17065 16.1698 3.34173 16.6853 3.62294 17.2112C3.92829 17.7821 4.37637 18.2302 4.94732 18.5355C5.47314 18.8167 5.98866 18.9878 7.43301 18.9878H20.5668C22.0112 18.9878 22.5267 18.8167 23.0525 18.5355C23.6235 18.2302 24.0716 17.7821 24.3769 17.2112C24.6581 16.6853 24.8292 16.1698 24.8292 14.7255V6.27456C24.8292 4.83022 24.6581 4.31469 24.3769 3.78887C24.0716 3.21792 23.6235 2.76984 23.0525 2.4645C22.5267 2.18328 22.0112 2.01221 20.5668 2.01221Z" fill="#EEEEEE"/>
</mask>
<g mask="url(#mask0_155_5338)">
<path d="M26.2489 2.0124V18.9877H1.72903V9.91097C1.72903 7.16446 1.72903 6.75476 1.72904 5.16443C1.72904 5.16443 1.72902 3.27007 1.729 2.01264L5.15603 2.01227C6.01892 2.01207 7.13078 2.0124 9.62761 2.0124H26.2489Z" fill="#1899D6"/>
<path d="M12.4171 2.01245V7.63475L13.9772 8.7682L15.5607 7.61772V2.01245H17.4469V6.24735L23.2757 2.01245H26.2489V3.73799L21.7011 7.04217H26.2489V8.92832H19.105L16.6513 10.711L18.5244 12.0719H26.2489V13.958H21.1204L26.2489 17.6841V18.9878H22.6951L17.4469 15.1747V18.9878H15.5607V13.8044L13.9772 12.6539L12.4171 13.7873V18.9878H10.531V15.1577L5.25937 18.9878H1.72899V17.6671L6.83402 13.958H1.72899V12.0719H9.43008L11.3031 10.711L8.84943 8.92832L1.74332 8.92768C1.76792 8.15052 1.6427 7.54388 1.72903 7.04185L6.25338 7.04217L1.72899 4.04151C1.72899 3.3052 1.72903 2.82373 1.72903 2.0125C1.72903 2.0125 4.48718 2.01245 4.88103 2.01245L10.531 6.26438V2.01245H12.4171Z" fill="#EEEEEE"/>
<path d="M15.5607 8.92832H26.2489V12.0719H15.5607V18.9878H12.4172V12.0719H1.729V8.92832H12.4172V2.01245H15.5607V8.92832Z" fill="#FF4B4B"/>
</g>
<path d="M20.5668 2.01221H7.43301C5.98866 2.01221 5.47314 2.18328 4.94732 2.4645C4.37637 2.76984 3.92829 3.21792 3.62294 3.78887C3.34173 4.31469 3.17065 4.83022 3.17065 6.27456V14.7255C3.17065 16.1698 3.34173 16.6853 3.62294 17.2112C3.92829 17.7821 4.37637 18.2302 4.94732 18.5355C5.47314 18.8167 5.98866 18.9878 7.43301 18.9878H20.5668C22.0112 18.9878 22.5267 18.8167 23.0525 18.5355C23.6235 18.2302 24.0716 17.7821 24.3769 17.2112C24.6581 16.6853 24.8292 16.1698 24.8292 14.7255V6.27456C24.8292 4.83022 24.6581 4.31469 24.3769 3.78887C24.0716 3.21792 23.6235 2.76984 23.0525 2.4645C22.5267 2.18328 22.0112 2.01221 20.5668 2.01221Z" stroke="white"/>
</g>
<defs>
<filter id="filter0_dd_155_5338" x="0.670654" y="0.512207" width="26.6584" height="21.9756" filterUnits="userSpaceOnUse" color-interpolation-filters="sRGB">
<feFlood flood-opacity="0" result="BackgroundImageFix"/>
<feColorMatrix in="SourceAlpha" type="matrix" values="0 0 0 0 0 0 0 0 0 0 0 0 0 0 0 0 0 0 127 0" result="hardAlpha"/>
<feOffset dy="1"/>
<feGaussianBlur stdDeviation="1"/>
<feComposite in2="hardAlpha" operator="out"/>
<feColorMatrix type="matrix" values="0 0 0 0 0 0 0 0 0 0 0 0 0 0 0 0 0 0 0.1 0"/>
<feBlend mode="normal" in2="BackgroundImageFix" result="effect1_dropShadow_155_5338"/>
<feColorMatrix in="SourceAlpha" type="matrix" values="0 0 0 0 0 0 0 0 0 0 0 0 0 0 0 0 0 0 127 0" result="hardAlpha"/>
<feOffset dy="1"/>
<feGaussianBlur stdDeviation="0.5"/>
<feComposite in2="hardAlpha" operator="out"/>
<feColorMatrix type="matrix" values="0 0 0 0 0 0 0 0 0 0 0 0 0 0 0 0 0 0 0.06 0"/>
<feBlend mode="normal" in2="effect1_dropShadow_155_5338" result="effect2_dropShadow_155_5338"/>
<feBlend mode="normal" in="SourceGraphic" in2="effect2_dropShadow_155_5338" result="shape"/>
</filter>
</defs>
</svg>
